<?xml version="1.0" encoding="utf-8"?>
<!-- Generator: Adobe Illustrator 16.0.0, SVG Export Plug-In . SVG Version: 6.00 Build 0)  -->
<!DOCTYPE svg PUBLIC "-//W3C//DTD SVG 1.1//EN" "http://www.w3.org/Graphics/SVG/1.1/DTD/svg11.dtd">
<svg version="1.1" id="Layer_1" xmlns="http://www.w3.org/2000/svg" xmlns:xlink="http://www.w3.org/1999/xlink" x="0px" y="0px"
	 width="528.162px" height="167.312px" viewBox="0 0 528.162 167.312" enable-background="new 0 0 528.162 167.312"
	 xml:space="preserve">
<g>
	<g>
		<g>
			<path fill="#cf69f6" d="M120.745,51.486h7.367c0.483,0,0.879-0.396,0.879-0.858c0-0.49-0.396-0.882-0.879-0.882h-7.367
				c-0.468,0-0.87,0.393-0.87,0.882C119.875,51.089,120.276,51.486,120.745,51.486z M124.428,116.078
				c-2.111,0-3.832,1.725-3.832,3.842c0,2.111,1.721,3.832,3.832,3.832c2.117,0,3.832-1.721,3.832-3.832
				C128.26,117.803,126.545,116.078,124.428,116.078z M105.623,112.791h37.617V57.162h-37.617V112.791z M226.223,94.525
				c-1.783,0-3.392,0.588-4.845,1.768c-1.457,1.199-2.398,2.752-2.848,4.674c-0.22,0.898-0.33,1.629-0.33,2.211v5.42
				c0,2.369,0.712,4.371,2.169,6c1.448,1.615,3.34,2.432,5.658,2.432c2.713,0,4.85-1.041,6.364-3.143
				c1.519-2.098,2.27-4.865,2.27-8.316c0-3.156-0.703-5.775-2.136-7.82C230.958,95.615,228.86,94.525,226.223,94.525z
				 M358.136,94.076c-2.895,0-5.105,1.285-6.617,3.871c-1.309,2.125-1.949,4.725-1.949,7.797c0,2.994,0.641,5.547,1.949,7.684
				c1.549,2.578,3.736,3.863,6.566,3.863c2.746,0,4.922-1.303,6.473-3.945c1.354-2.16,2.021-4.748,2.021-7.727
				c0-2.977-0.645-5.547-1.93-7.672C363.111,95.361,360.951,94.076,358.136,94.076z M261.986,94.525
				c-1.793,0-3.393,0.588-4.85,1.768c-1.448,1.199-2.404,2.752-2.853,4.674c-0.22,0.898-0.325,1.629-0.325,2.211v5.42
				c0,2.369,0.711,4.371,2.169,6c1.448,1.615,3.34,2.432,5.649,2.432c2.736,0,4.854-1.041,6.373-3.143
				c1.523-2.098,2.283-4.865,2.283-8.316c0-3.156-0.717-5.775-2.141-7.82C266.716,95.615,264.619,94.525,261.986,94.525z
				 M187.258,82.884h-0.124c-0.454,1.918-1.161,4.747-2.15,8.502l-3.75,11.787h12.116l-3.802-11.787
				C189.136,90.178,188.373,87.34,187.258,82.884z M412.984,93.723c-2.361,0-4.281,1.008-5.758,2.957
				c-1.203,1.559-1.926,3.436-2.146,5.615h15.064c0.039-2.137-0.42-3.98-1.398-5.553C417.488,94.74,415.568,93.723,412.984,93.723z
				 M219.151,61.605c0.1-0.308,0.1-0.619,0.1-0.929v-2.306c-2.991-0.033-5.848,0.586-5.848,3.132c0,1.651,1.065,2.411,2.408,2.411
				C217.532,63.914,218.735,62.811,219.151,61.605z M179.69,51.075c-0.45-1.414-0.826-2.996-1.17-4.338h-0.073
				c-0.338,1.342-0.721,2.959-1.098,4.338l-1.787,5.714h5.953L179.69,51.075z M419.658,49.422c5.438,0,7.229,4.474,7.229,8.158
				c0,0.791-0.066,1.412-0.139,1.79h-11.219c0.102,3.029,2.441,4.335,5.162,4.335c1.963,0,3.338-0.308,4.648-0.756l0.615,2.893
				c-1.441,0.619-3.439,1.065-5.848,1.065c-5.438,0-8.639-3.337-8.639-8.464C411.468,53.793,414.287,49.422,419.658,49.422z
				 M352.48,49.798l0.205,2.514h0.105c0.756-1.31,2.58-2.89,5.371-2.89c2.924,0,5.953,1.892,5.953,7.193v9.947h-4.232v-9.467
				c0-2.408-0.895-4.233-3.201-4.233c-1.688,0-2.859,1.207-3.307,2.479c-0.139,0.344-0.207,0.86-0.207,1.343v9.878h-4.232v-11.77
				c0-1.931-0.066-3.545-0.139-4.994H352.48z M308.027,49.422c5.438,0,7.227,4.474,7.227,8.158c0,0.791-0.07,1.412-0.137,1.79
				h-11.223c0.104,3.029,2.445,4.335,5.164,4.335c1.959,0,3.336-0.308,4.645-0.756l0.621,2.893
				c-1.447,0.619-3.441,1.065-5.854,1.065c-5.438,0-8.639-3.337-8.639-8.464C299.832,53.793,302.656,49.422,308.027,49.422z
				 M290.671,42.125h4.234v24.437h-4.234V42.125z M257.097,52.415c-1.653,0-3.373,0.519-4.505,1.24l-0.827-2.751
				c1.238-0.761,3.407-1.482,6.055-1.482c5.369,0,6.924,3.407,6.924,7.09v6.024c0,1.515,0.066,2.994,0.271,4.025h-3.822
				l-0.307-1.856h-0.105c-0.998,1.306-2.752,2.237-4.954,2.237c-3.378,0-5.269-2.444-5.269-4.994c0-4.199,3.75-6.366,9.948-6.33
				v-0.277C260.505,54.243,260.056,52.415,257.097,52.415z M232.066,42.814c1.448,0,2.342,0.999,2.375,2.305
				c0,1.24-0.927,2.272-2.409,2.272c-1.413,0-2.341-1.032-2.341-2.272C229.691,43.812,230.656,42.814,232.066,42.814z
				 M234.164,49.798v16.764h-4.229V49.798H234.164z M175.939,43.363h5.405l7.534,23.199h-4.577l-2.097-6.574h-7.334l-1.997,6.574
				H168.5L175.939,43.363z M147.745,120.287c0,4.092-3.33,7.402-7.416,7.402h-31.792c-4.089,0-7.42-3.311-7.42-7.402V49.646
				c0-4.085,3.331-7.41,7.42-7.41h31.792c4.085,0,7.416,3.325,7.416,7.41V120.287z M198.846,121.984l-4.214-13.246h-14.668
				l-4.024,13.246h-7.492l14.521-45.127h8.982l14.602,45.127H198.846z M200.488,66.562h-4.166l-6.23-16.764h4.582l2.713,8.505
				c0.483,1.48,0.826,2.822,1.137,4.2h0.105c0.311-1.378,0.688-2.689,1.137-4.2l2.686-8.505h4.438L200.488,66.562z M209.203,61.949
				c0-4.199,3.751-6.366,9.948-6.33v-0.277c0-1.099-0.449-2.926-3.406-2.926c-1.653,0-3.374,0.519-4.511,1.24l-0.826-2.751
				c1.237-0.761,3.406-1.482,6.058-1.482c5.37,0,6.918,3.407,6.918,7.09v6.024c0,1.515,0.066,2.994,0.277,4.025h-3.823l-0.311-1.856
				h-0.1c-0.999,1.306-2.757,2.237-4.959,2.237C211.096,66.942,209.203,64.498,209.203,61.949z M237.518,118.449
				c-2.685,2.842-6.039,4.271-10.029,4.271c-4.318,0-7.41-1.535-9.288-4.625v17.09h-7.229v-35.051c0-3.479-0.091-7.037-0.277-10.693
				h6.364l0.397,5.156h0.129c2.421-3.871,6.077-5.811,10.994-5.811c3.837,0,7.033,1.506,9.613,4.549
				c2.561,3.029,3.847,7.033,3.847,11.982C242.038,110.871,240.538,115.229,237.518,118.449z M245.043,66.562h-4.228V42.125h4.228
				V66.562z M273.271,118.449c-2.695,2.842-6.029,4.271-10.029,4.271c-4.309,0-7.406-1.535-9.283-4.625v17.09h-7.234v-35.051
				c0-3.479-0.096-7.037-0.268-10.693h6.346l0.415,5.156h0.125c2.428-3.871,6.077-5.811,10.985-5.811
				c3.842,0,7.047,1.506,9.613,4.549c2.57,3.029,3.85,7.033,3.85,11.982C277.791,110.871,276.291,115.229,273.271,118.449z
				 M278.24,66.942c-2.17,0-4.1-0.826-5.303-2.891h-0.068l-0.205,2.511h-3.617c0.074-1.134,0.139-2.993,0.139-4.715V42.125h4.234
				v9.98h0.066c1.033-1.619,2.857-2.684,5.371-2.684c4.1,0,7.023,3.407,6.99,8.5C285.847,63.947,282.025,66.942,278.24,66.942z
				 M314.638,118.701c-2.953,2.639-7.047,3.947-12.297,3.947c-4.865,0-8.758-0.941-11.697-2.809l1.682-6.025
				c3.168,1.867,6.646,2.814,10.43,2.814c2.738,0,4.852-0.623,6.369-1.84c1.51-1.223,2.27-2.863,2.27-4.941
				c0-1.807-0.625-3.35-1.867-4.605c-1.262-1.246-3.32-2.398-6.227-3.479c-7.893-2.939-11.844-7.248-11.844-12.914
				c0-3.709,1.377-6.75,4.17-9.117c2.791-2.358,6.484-3.545,11.09-3.545c4.104,0,7.521,0.721,10.25,2.14l-1.826,5.891
				c-2.547-1.375-5.438-2.078-8.662-2.078c-2.547,0-4.549,0.65-5.986,1.869c-1.199,1.131-1.807,2.494-1.807,4.1
				c0,1.771,0.691,3.248,2.074,4.428c1.209,1.066,3.396,2.223,6.555,3.469c3.898,1.549,6.746,3.393,8.58,5.496
				c1.826,2.096,2.75,4.705,2.75,7.826C318.644,113.17,317.3,116.303,314.638,118.701z M340.134,94.859h-7.984v15.82
				c0,4.014,1.418,6.006,4.232,6.006c1.295,0,2.355-0.096,3.211-0.316l0.205,5.477c-1.432,0.535-3.301,0.807-5.623,0.807
				c-2.842,0-5.092-0.859-6.693-2.613c-1.619-1.729-2.422-4.658-2.422-8.768V94.859h-4.75v-5.418h4.75v-5.957l7.09-2.142v8.099
				h7.984V94.859z M336.054,66.942c-4.717,0-8.4-3.238-8.4-8.639c0-5.509,3.615-8.881,8.678-8.881c4.986,0,8.326,3.512,8.326,8.605
				C344.658,64.19,340.32,66.942,336.054,66.942z M369.8,117.779c-3,3.293-6.971,4.941-11.916,4.941c-4.783,0-8.6-1.582-11.434-4.75
				c-2.828-3.162-4.244-7.178-4.244-11.988c0-5.041,1.459-9.174,4.383-12.385c2.928-3.225,6.855-4.811,11.811-4.811
				c4.797,0,8.629,1.566,11.533,4.754c2.758,3.062,4.143,7.047,4.143,11.906C374.076,110.465,372.658,114.555,369.8,117.779z
				 M377.273,49.798h2.375v-3.131l4.166-1.171v4.302h4.027v3.169h-4.027v7.401c0,2.063,0.549,3.095,2.168,3.095
				c0.756,0,1.172-0.033,1.654-0.172l0.066,3.202c-0.621,0.238-1.754,0.449-3.062,0.449c-1.582,0-2.857-0.517-3.648-1.376
				c-0.928-0.965-1.344-2.514-1.344-4.716v-7.883h-2.375V49.798z M395.835,95.801c-0.713-0.129-1.477-0.186-2.275-0.186
				c-2.545,0-4.504,0.959-5.891,2.875c-1.209,1.703-1.811,3.812-1.811,6.422v17.072h-7.229V99.676c0-3.727-0.068-7.143-0.197-10.234
				h6.293l0.273,6.23h0.195c0.754-2.135,1.955-3.861,3.617-5.146c1.605-1.174,3.354-1.738,5.227-1.738
				c0.664,0,1.271,0.037,1.797,0.125V95.801z M396.933,56.512v10.05h-4.232V42.125h4.232v9.949h0.068
				c0.516-0.794,1.242-1.449,2.102-1.893c0.861-0.485,1.859-0.759,2.924-0.759c2.857,0,5.854,1.892,5.854,7.262v9.878h-4.234v-9.429
				c0-2.41-0.896-4.271-3.234-4.271c-1.652,0-2.824,1.104-3.305,2.377C396.968,55.619,396.933,56.062,396.933,56.512z
				 M426.783,107.469H405.08c0.088,3.211,1.139,5.656,3.154,7.348c1.826,1.525,4.186,2.285,7.09,2.285
				c3.221,0,6.141-0.512,8.773-1.555l1.143,5.027c-3.074,1.352-6.719,2.008-10.924,2.008c-5.035,0-8.996-1.477-11.877-4.443
				c-2.877-2.967-4.328-6.953-4.328-11.949c0-4.918,1.346-8.994,4.016-12.266c2.83-3.479,6.623-5.219,11.393-5.219
				c4.701,0,8.242,1.74,10.645,5.219c1.916,2.775,2.881,6.191,2.881,10.258C427.044,105.467,426.949,106.561,426.783,107.469z
				 M277.308,52.726c-1.719,0-3.301,1.24-3.75,3.098c-0.072,0.311-0.139,0.688-0.139,1.102v2.718c0,0.345,0.033,0.691,0.105,1.002
				c0.443,1.717,1.926,2.958,3.75,2.958c2.652,0,4.268-2.1,4.268-5.504C281.542,55.137,280.132,52.726,277.308,52.726z
				 M307.783,52.312c-2.613,0-3.717,2.375-3.889,4.098h7.367C311.294,54.859,310.607,52.312,307.783,52.312z M336.226,52.485
				c-2.996,0-4.201,2.924-4.201,5.714c0,3.235,1.621,5.681,4.166,5.681c2.41,0,4.096-2.341,4.096-5.748
				C340.287,55.513,339.117,52.485,336.226,52.485z M254.757,61.503c0,1.651,1.07,2.411,2.409,2.411c1.725,0,2.928-1.103,3.34-2.309
				c0.104-0.308,0.104-0.619,0.104-0.929v-2.306C257.613,58.337,254.757,58.957,254.757,61.503z M419.419,52.312
				c-2.619,0-3.717,2.375-3.891,4.098h7.363C422.931,54.859,422.238,52.312,419.419,52.312z"/>
		</g>
	</g>
</g>
<g>
	<path fill="#cf69f6" d="M521.919,3.001c1.103,0,2,0.897,2,2v157.712c0,1.103-0.897,2-2,2H5c-1.103,0-2-0.897-2-2V5.001
		c0-1.103,0.897-2,2-2H521.919 M521.919,0.001H5c-2.761,0-5,2.239-5,5v157.712c0,2.762,2.239,5,5,5h516.919c2.762,0,5-2.238,5-5
		V5.001C526.919,2.24,524.681,0.001,521.919,0.001L521.919,0.001z"/>
</g>
</svg>
