<?xml version="1.0" encoding="utf-8"?>
<!-- Generator: Adobe Illustrator 16.0.0, SVG Export Plug-In . SVG Version: 6.00 Build 0)  -->
<!DOCTYPE svg PUBLIC "-//W3C//DTD SVG 1.1//EN" "http://www.w3.org/Graphics/SVG/1.1/DTD/svg11.dtd">
<svg version="1.1" id="Layer_1" xmlns="http://www.w3.org/2000/svg" xmlns:xlink="http://www.w3.org/1999/xlink" x="0px" y="0px"
	 width="526.92px" height="167.712px" viewBox="0 0 526.92 167.712" enable-background="new 0 0 526.92 167.712"
	 xml:space="preserve">
<g id="PLAY_1_">
	<defs>
		<path id="SVGID_1_" d="M131.571,70.546l-19.87-11.472c0,0-36.199-20.902-38.327-22.13c-2.128-1.229-4.248-0.485-4.248,2.083
			c0,4.277,0,44.628,0,44.628s0,43.608,0,45.534c0,1.925,1.517,2.754,3.364,1.688c1.848-1.068,39.211-22.641,39.211-22.641
			l19.869-11.472c0,0,16.859-9.733,19.1-11.026c2.241-1.295,2.025-3.07,0.135-4.088C148.914,80.632,131.571,70.546,131.571,70.546z"
			/>
	</defs>
	<linearGradient id="SVGID_2_" gradientUnits="userSpaceOnUse" x1="110.7065" y1="36.3662" x2="110.7065" y2="131.3477">
		<stop  offset="0" style="stop-color:#cf69f6"/>
		<stop  offset="0.3289" style="stop-color:#d898f1;stop-opacity:0.6711"/>
		<stop  offset="0.7809" style="stop-color:#edd7f5;stop-opacity:0.2191"/>
		<stop  offset="1" style="stop-color:#FFFFFF;stop-opacity:0"/>
	</linearGradient>
	<use xlink:href="#SVGID_1_"  overflow="visible" fill="url(#SVGID_2_)"/>
	<clipPath id="SVGID_3_">
		<use xlink:href="#SVGID_1_"  overflow="visible"/>
	</clipPath>
	<linearGradient id="SVGID_4_" gradientUnits="userSpaceOnUse" x1="93.7378" y1="34.8481" x2="93.7378" y2="132.4648">
		<stop  offset="0" style="stop-color:#cf69f6"/>
		<stop  offset="0.3289" style="stop-color:#d898f1;stop-opacity:0.6711"/>
		<stop  offset="0.7809" style="stop-color:#edd7f5;stop-opacity:0.2191"/>
		<stop  offset="1" style="stop-color:#FFFFFF;stop-opacity:0"/>
	</linearGradient>
	<polygon clip-path="url(#SVGID_3_)" fill="url(#SVGID_4_)" points="69.126,34.848 69.126,83.656 69.126,132.464 118.35,83.657 	"/>
	<linearGradient id="SVGID_5_" gradientUnits="userSpaceOnUse" x1="69.126" y1="59.0747" x2="131.5713" y2="59.0747">
		<stop  offset="0" style="stop-color:#cf69f6"/>
		<stop  offset="0.3289" style="stop-color:#d898f1;stop-opacity:0.6711"/>
		<stop  offset="0.7809" style="stop-color:#edd7f5;stop-opacity:0.2191"/>
		<stop  offset="1" style="stop-color:#FFFFFF;stop-opacity:0"/>
	</linearGradient>
	<polygon clip-path="url(#SVGID_3_)" fill="url(#SVGID_5_)" points="131.571,70.546 111.701,59.075 69.126,34.493 69.126,34.848 
		118.35,83.657 	"/>
	<linearGradient id="SVGID_6_" gradientUnits="userSpaceOnUse" x1="100.3481" y1="83.6567" x2="100.3481" y2="132.8193">
		<stop  offset="0" style="stop-color:#cf69f6"/>
		<stop  offset="0.3289" style="stop-color:#d898f1;stop-opacity:0.6711"/>
		<stop  offset="0.7809" style="stop-color:#edd7f5;stop-opacity:0.2191"/>
		<stop  offset="1" style="stop-color:#FFFFFF;stop-opacity:0"/>
	</linearGradient>
	<polygon clip-path="url(#SVGID_3_)" fill="url(#SVGID_6_)" points="69.126,132.464 69.126,132.819 111.701,108.237 131.57,96.765 
		118.35,83.657 	"/>
	<linearGradient id="SVGID_7_" gradientUnits="userSpaceOnUse" x1="136.314" y1="70.5464" x2="136.314" y2="96.7656">
		<stop  offset="0" style="stop-color:#cf69f6"/>
		<stop  offset="0.3289" style="stop-color:#d898f1;stop-opacity:0.6711"/>
		<stop  offset="0.7809" style="stop-color:#edd7f5;stop-opacity:0.2191"/>
		<stop  offset="1" style="stop-color:#FFFFFF;stop-opacity:0"/>
	</linearGradient>
	<polygon clip-path="url(#SVGID_3_)" fill="url(#SVGID_7_)" points="131.571,70.546 118.35,83.657 131.57,96.765 154.278,83.656 	
		"/>
</g>
<path fill="#cf69f6" d="M379.022,105.738c-1.849,0-3.536-0.341-5.063-1.022c-1.528-0.682-2.812-1.731-3.848-3.146h-0.311
	c0.207,1.658,0.311,3.229,0.311,4.714v11.681h-4.298V76.832h3.496l0.595,3.885h0.207c1.106-1.555,2.394-2.676,3.861-3.366
	c1.467-0.691,3.151-1.037,5.05-1.037c3.765,0,6.671,1.287,8.716,3.86c2.047,2.573,3.07,6.183,3.07,10.826
	c0,4.663-1.041,8.284-3.119,10.868C385.606,104.448,382.719,105.738,379.022,105.738z M378.4,79.965
	c-2.901,0-4.998,0.804-6.293,2.41c-1.295,1.605-1.961,4.161-1.996,7.667V91c0,3.99,0.665,6.844,1.996,8.562
	c1.33,1.719,3.463,2.577,6.396,2.577c2.453,0,4.375-0.992,5.766-2.978c1.39-1.985,2.084-4.723,2.084-8.213
	c0-3.539-0.694-6.256-2.084-8.146C382.879,80.911,380.922,79.965,378.4,79.965z"/>
<path fill="#cf69f6" d="M400.764,105.219h-4.299V64.917h4.299V105.219z"/>
<path fill="#cf69f6" d="M425.484,105.219l-0.856-4.041h-0.207c-1.416,1.781-2.827,2.985-4.235,3.614
	c-1.406,0.632-3.164,0.945-5.27,0.945c-2.814,0-5.021-0.726-6.619-2.176c-1.598-1.45-2.396-3.513-2.396-6.189
	c0-5.732,4.585-8.737,13.754-9.015l4.819-0.155v-1.761c0-2.229-0.48-3.873-1.439-4.935c-0.957-1.063-2.492-1.593-4.597-1.593
	c-2.367,0-5.044,0.725-8.03,2.176l-1.321-3.29c1.399-0.76,2.931-1.355,4.599-1.787c1.666-0.432,3.336-0.647,5.012-0.647
	c3.384,0,5.893,0.75,7.525,2.253c1.631,1.502,2.446,3.911,2.446,7.228v19.373H425.484z M415.771,102.19
	c2.676,0,4.777-0.733,6.307-2.201c1.527-1.467,2.293-3.522,2.293-6.166v-2.563l-4.303,0.18c-3.418,0.123-5.881,0.652-7.395,1.595
	c-1.51,0.941-2.266,2.405-2.266,4.391c0,1.554,0.47,2.737,1.412,3.547C412.762,101.785,414.076,102.19,415.771,102.19z"/>
<path fill="#cf69f6" d="M431.166,76.832h4.608l6.217,16.189c1.364,3.696,2.212,6.363,2.54,8.005h0.207
	c0.225-0.883,0.696-2.389,1.411-4.522c0.717-2.133,3.062-8.688,7.032-19.672h4.612l-12.201,32.325
	c-1.208,3.195-2.62,5.462-4.236,6.802c-1.614,1.337-3.597,2.005-5.942,2.005c-1.313,0-2.608-0.146-3.888-0.438v-3.444
	c0.949,0.207,2.013,0.311,3.188,0.311c2.953,0,5.058-1.657,6.32-4.974l1.579-4.04L431.166,76.832z"/>
<path fill="#cf69f6" d="M299.372,79.469c1.364,1.129,4.214,3.502,4.214,8.018c0,4.391-2.493,6.473-4.988,8.43
	c-0.772,0.771-1.662,1.605-1.662,2.913c0,1.304,0.89,2.017,1.545,2.552l2.139,1.659c2.613,2.198,4.985,4.218,4.985,8.317
	c0,5.58-5.403,11.22-15.614,11.22c-8.611,0-12.767-4.096-12.767-8.492c0-2.138,1.064-5.164,4.572-7.244
	c3.679-2.257,8.67-2.551,11.341-2.733c-0.834-1.067-1.782-2.195-1.782-4.033c0-1.008,0.298-1.603,0.594-2.318
	c-0.655,0.061-1.308,0.119-1.902,0.119c-6.291,0-9.854-4.691-9.854-9.32c0-2.732,1.248-5.762,3.799-7.957
	c3.386-2.791,7.423-3.268,10.632-3.268h12.229l-3.801,2.139H299.372z M295.155,105.834c-0.475-0.062-0.773-0.062-1.364-0.062
	c-0.534,0-3.745,0.122-6.236,0.955c-1.306,0.472-5.106,1.896-5.106,6.114c0,4.214,4.099,7.247,10.453,7.247
	c5.696,0,8.728-2.737,8.728-6.416C301.629,110.639,299.669,109.042,295.155,105.834z M296.878,94.551
	c1.364-1.367,1.481-3.266,1.481-4.336c0-4.273-2.553-10.924-7.479-10.924c-1.546,0-3.206,0.771-4.157,1.96
	c-1.008,1.247-1.308,2.849-1.308,4.394c0,3.979,2.316,10.569,7.426,10.569C294.324,96.214,295.924,95.502,296.878,94.551z"/>
<path fill="#cf69f6" d="M261.99,104.884c-9.425,0-14.464-7.353-14.464-13.993c0-7.766,6.342-14.403,15.356-14.403
	c8.711,0,14.165,6.815,14.165,13.99C277.048,97.471,271.655,104.884,261.99,104.884z M269.399,100.083
	c1.425-1.899,1.781-4.27,1.781-6.583c0-5.219-2.49-15.177-9.842-15.177c-1.955,0-3.911,0.772-5.334,2.02
	c-2.312,2.073-2.729,4.681-2.729,7.233c0,5.865,2.905,15.525,10.08,15.525C265.667,103.102,268.039,101.978,269.399,100.083z"/>
<path fill="#cf69f6" d="M229.858,104.884c-9.427,0-14.467-7.353-14.467-13.993c0-7.766,6.346-14.403,15.357-14.403
	c8.713,0,14.166,6.815,14.166,13.99C244.915,97.471,239.522,104.884,229.858,104.884z M237.27,100.083
	c1.422-1.899,1.779-4.27,1.779-6.583c0-5.219-2.491-15.177-9.844-15.177c-1.954,0-3.912,0.772-5.334,2.02
	c-2.312,2.073-2.727,4.681-2.727,7.233c0,5.865,2.903,15.525,10.079,15.525C233.536,103.102,235.906,101.978,237.27,100.083z"/>
<path fill="#cf69f6" d="M210.864,103.956l-8.524,1.967c-3.459,0.537-6.557,1.011-9.833,1.011c-16.452,0-22.708-12.101-22.708-21.577
	c0-11.561,8.88-22.287,24.079-22.287c3.221,0,6.317,0.476,9.117,1.252c4.472,1.252,6.556,2.8,7.869,3.694l-4.949,4.709l-2.085,0.475
	l1.491-2.385c-2.026-1.966-5.725-5.601-12.756-5.601c-9.417,0-16.511,7.155-16.511,17.586c0,11.201,8.107,21.751,21.099,21.751
	c3.817,0,5.78-0.774,7.57-1.491v-9.594l-8.999,0.476l4.766-2.565h12.637l-1.548,1.489c-0.421,0.359-0.478,0.479-0.598,0.953
	c-0.062,0.537-0.117,2.267-0.117,2.862V103.956z"/>
<path fill="#cf69f6" d="M318.21,102.239c-1.968-0.18-2.379-0.535-2.379-2.862V98.72V65.643c0.012-0.129,0.02-0.26,0.031-0.385
	c0.241-2.085,0.836-2.442,2.686-3.517h-8.526l-4.472,2.146h4.557v0.026l-0.003-0.021V98.72v1.969c0,1.189-0.235,1.37-1.607,3.157
	h10.551l2.205-1.308C320.239,102.416,319.225,102.358,318.21,102.239z"/>
<path fill="#cf69f6" d="M342.462,102.787c-0.648,0.355-1.3,0.772-1.948,1.065c-1.957,0.888-3.969,1.125-5.747,1.125
	c-1.89,0-4.852-0.121-7.873-2.31c-4.199-2.961-6.034-8.052-6.034-12.489c0-9.174,7.458-13.672,13.555-13.672
	c2.131,0,4.323,0.532,6.1,1.658c2.957,1.949,3.727,4.496,4.138,5.857l-13.906,5.625l-4.558,0.355
	c1.477,7.517,6.567,11.893,12.192,11.893c3.019,0,5.209-1.062,7.221-2.067L342.462,102.787z M336.901,85.147
	c1.122-0.414,1.714-0.77,1.714-1.598c0-2.366-2.662-5.091-5.86-5.091c-2.37,0-6.807,1.836-6.807,8.227
	c0,1.007,0.118,2.071,0.18,3.14L336.901,85.147z"/>
<g>
	<path fill="#cf69f6" d="M348.176,76.911v3.906h-0.475v-3.906h-1.292v-0.404h3.059v0.404H348.176z"/>
	<path fill="#cf69f6" d="M353.5,80.817v-3.941h-0.021l-1.203,3.941h-0.371l-1.213-3.941h-0.016v3.941h-0.431v-4.311h0.738
		l1.099,3.484h0.015l1.081-3.484h0.749v4.311H353.5z"/>
</g>
<path fill="#cf69f6" d="M181.637,51.463h-2.962c0-0.407-0.281-1.561-0.843-3.461h-4.276c-0.579,1.869-0.869,3.022-0.869,3.461
	h-2.785c0-0.24,0.72-2.215,2.16-5.923s2.161-5.751,2.161-6.127h3.498c0,0.352,0.653,2.364,1.958,6.038
	C180.983,49.126,181.637,51.13,181.637,51.463z M177.36,46.235c-1.055-3.185-1.583-4.905-1.583-5.165h-0.148
	c0,0.241-0.545,1.962-1.637,5.165H177.36z"/>
<path fill="#cf69f6" d="M193.57,51.463h-2.287c0-0.253-0.848-1.589-2.544-4.008c-1.777-2.548-2.79-4.29-3.035-5.229h-0.148
	c0.153,1.352,0.23,2.573,0.23,3.665c0,1.523,0.044,3.381,0.13,5.571h-2.277c0.093-1.912,0.14-4.014,0.14-6.303
	c0-2.252-0.047-4.168-0.14-5.747h2.75c0,0.327,0.762,1.632,2.285,3.915c1.623,2.425,2.555,4.068,2.795,4.933h0.14
	c-0.148-1.376-0.222-2.61-0.222-3.702c0-1.672-0.044-3.387-0.13-5.146h2.313c-0.088,1.53-0.13,3.446-0.13,5.747
	C193.44,47.48,193.482,49.582,193.57,51.463z"/>
<path fill="#cf69f6" d="M206.984,45.022c0,1.753-0.562,3.282-1.685,4.591c-1.123,1.308-2.696,1.962-4.72,1.962
	c-0.913,0-2.172-0.037-3.776-0.111c0.08-1.863,0.12-3.965,0.12-6.303c0-2.245-0.04-4.161-0.12-5.747h1.62
	c0.265,0,0.659-0.01,1.185-0.028c0.523-0.019,0.866-0.027,1.027-0.027c2.227,0,3.842,0.556,4.845,1.666
	C206.482,42.134,206.984,43.467,206.984,45.022z M204.458,45.42c0-1.186-0.346-2.183-1.037-2.995
	c-0.691-0.811-1.746-1.217-3.165-1.217c-0.266,0-0.629,0.028-1.092,0.084c0.062,1.234,0.092,2.523,0.092,3.868
	c0,1.475,0.031,2.938,0.093,4.387c0.4,0.08,0.802,0.121,1.203,0.121c1.326,0,2.309-0.413,2.948-1.236
	C204.138,47.608,204.458,46.605,204.458,45.42z"/>
<path fill="#cf69f6" d="M219.354,51.463h-2.74c-0.716-2.185-1.265-3.532-1.646-4.044c-0.383-0.513-1-0.769-1.852-0.769
	c-0.358,0-0.7,0.003-1.027,0.009c0,1.586,0.028,3.188,0.083,4.804h-2.572c0.08-1.863,0.12-3.965,0.12-6.303
	c0-2.245-0.04-4.161-0.12-5.747h1.601c0.186,0,0.572-0.01,1.162-0.028c0.589-0.019,1.134-0.027,1.633-0.027
	c2.832,0,4.248,0.969,4.248,2.906c0,1.536-0.809,2.606-2.425,3.211v0.14c0.623,0.172,1.17,0.658,1.639,1.457
	S218.558,49.334,219.354,51.463z M215.883,42.949c0-1.228-0.79-1.842-2.369-1.842c-0.58,0-1.093,0.043-1.537,0.13
	c0.068,0.956,0.103,2.202,0.103,3.739c0.339,0.013,0.626,0.019,0.86,0.019C214.901,44.995,215.883,44.313,215.883,42.949z"/>
<path fill="#cf69f6" d="M232.62,45.216c0,1.894-0.581,3.465-1.74,4.711c-1.16,1.246-2.595,1.869-4.304,1.869
	c-1.629,0-2.992-0.572-4.091-1.717c-1.098-1.145-1.647-2.6-1.647-4.363c0-1.895,0.58-3.465,1.74-4.711s2.594-1.869,4.304-1.869
	c1.629,0,2.992,0.57,4.091,1.712C232.07,41.99,232.62,43.445,232.62,45.216z M230.065,45.485c0-1.29-0.33-2.336-0.99-3.138
	s-1.475-1.203-2.443-1.203c-0.901,0-1.666,0.404-2.295,1.213c-0.63,0.809-0.944,1.829-0.944,3.063c0,1.282,0.331,2.327,0.995,3.132
	c0.663,0.806,1.476,1.208,2.438,1.208c0.9,0,1.666-0.405,2.295-1.217C229.751,47.732,230.065,46.712,230.065,45.485z"/>
<path fill="#cf69f6" d="M237.854,51.463h-2.62c0.08-1.912,0.121-4.014,0.121-6.303c0-2.252-0.041-4.168-0.121-5.747h2.62
	c-0.081,1.555-0.121,3.471-0.121,5.747C237.732,47.487,237.772,49.588,237.854,51.463z"/>
<path fill="#cf69f6" d="M251.268,45.022c0,1.753-0.562,3.282-1.685,4.591c-1.124,1.308-2.697,1.962-4.72,1.962
	c-0.914,0-2.172-0.037-3.776-0.111c0.079-1.863,0.12-3.965,0.12-6.303c0-2.245-0.041-4.161-0.12-5.747h1.619
	c0.266,0,0.66-0.01,1.185-0.028c0.525-0.019,0.867-0.027,1.028-0.027c2.227,0,3.842,0.556,4.845,1.666
	S251.268,43.467,251.268,45.022z M248.74,45.42c0-1.186-0.345-2.183-1.036-2.995c-0.691-0.811-1.746-1.217-3.165-1.217
	c-0.266,0-0.63,0.028-1.093,0.084c0.062,1.234,0.093,2.523,0.093,3.868c0,1.475,0.031,2.938,0.093,4.387
	c0.401,0.08,0.803,0.121,1.203,0.121c1.326,0,2.31-0.413,2.948-1.236C248.422,47.608,248.74,46.605,248.74,45.42z"/>
<path fill="#cf69f6" d="M269.063,51.463h-2.962c0-0.407-0.28-1.561-0.843-3.461h-4.275c-0.58,1.869-0.87,3.022-0.87,3.461h-2.785
	c0-0.24,0.721-2.215,2.16-5.923c1.44-3.708,2.161-5.751,2.161-6.127h3.498c0,0.352,0.653,2.364,1.958,6.038
	C268.41,49.126,269.063,51.13,269.063,51.463z M264.788,46.235c-1.056-3.185-1.584-4.905-1.584-5.165h-0.147
	c0,0.241-0.546,1.962-1.638,5.165H264.788z"/>
<path fill="#cf69f6" d="M279.859,42.57c0,1.475-0.548,2.563-1.644,3.267c-1.095,0.703-2.438,1.055-4.03,1.055
	c-0.29,0-0.496-0.006-0.62-0.019c0,1.161,0.034,2.69,0.102,4.591h-2.601c0.08-1.783,0.121-3.884,0.121-6.303
	c0-2.221-0.041-4.137-0.121-5.747h1.61c0.229,0,0.667-0.01,1.314-0.028s1.209-0.027,1.685-0.027c1.172,0,2.162,0.265,2.971,0.796
	S279.859,41.49,279.859,42.57z M277.471,43.079c0-1.32-0.875-1.98-2.628-1.98c-0.438,0-0.901,0.046-1.389,0.139
	c0.068,1.166,0.103,2.486,0.103,3.961c0.153,0.013,0.333,0.019,0.536,0.019C276.346,45.216,277.471,44.503,277.471,43.079z"/>
<path fill="#cf69f6" d="M290.959,42.57c0,1.475-0.548,2.563-1.643,3.267s-2.438,1.055-4.03,1.055c-0.291,0-0.497-0.006-0.62-0.019
	c0,1.161,0.033,2.69,0.102,4.591h-2.601c0.08-1.783,0.12-3.884,0.12-6.303c0-2.221-0.04-4.137-0.12-5.747h1.61
	c0.228,0,0.666-0.01,1.314-0.028c0.647-0.019,1.209-0.027,1.684-0.027c1.173,0,2.163,0.265,2.972,0.796S290.959,41.49,290.959,42.57
	z M288.571,43.079c0-1.32-0.876-1.98-2.628-1.98c-0.438,0-0.901,0.046-1.389,0.139c0.068,1.166,0.102,2.486,0.102,3.961
	c0.154,0.013,0.333,0.019,0.537,0.019C287.445,45.216,288.571,44.503,288.571,43.079z"/>
<path fill="#cf69f6" d="M309.107,45.216c0,1.894-0.58,3.465-1.74,4.711s-2.595,1.869-4.304,1.869c-1.629,0-2.992-0.572-4.091-1.717
	c-1.098-1.145-1.646-2.6-1.646-4.363c0-1.895,0.579-3.465,1.739-4.711s2.595-1.869,4.304-1.869c1.629,0,2.993,0.57,4.091,1.712
	S309.107,43.445,309.107,45.216z M306.553,45.485c0-1.29-0.33-2.336-0.99-3.138s-1.475-1.203-2.443-1.203
	c-0.9,0-1.666,0.404-2.295,1.213c-0.63,0.809-0.944,1.829-0.944,3.063c0,1.282,0.332,2.327,0.995,3.132
	c0.663,0.806,1.477,1.208,2.438,1.208c0.901,0,1.666-0.405,2.296-1.217C306.238,47.732,306.553,46.712,306.553,45.485z"/>
<path fill="#cf69f6" d="M321.652,51.463h-2.286c0-0.253-0.849-1.589-2.545-4.008c-1.777-2.548-2.789-4.29-3.036-5.229h-0.148
	c0.154,1.352,0.231,2.573,0.231,3.665c0,1.523,0.043,3.381,0.13,5.571h-2.276c0.093-1.912,0.139-4.014,0.139-6.303
	c0-2.252-0.046-4.168-0.139-5.747h2.749c0,0.327,0.762,1.632,2.285,3.915c1.623,2.425,2.555,4.068,2.795,4.933h0.14
	c-0.148-1.376-0.223-2.61-0.223-3.702c0-1.672-0.043-3.387-0.13-5.146h2.314c-0.087,1.53-0.13,3.446-0.13,5.747
	C321.522,47.48,321.565,49.582,321.652,51.463z"/>
<g>
	<path fill="#cf69f6" d="M521.92,3c1.103,0,2,0.897,2,2v157.712c0,1.103-0.897,2-2,2H5c-1.103,0-2-0.897-2-2V5c0-1.103,0.897-2,2-2
		H521.92 M521.92,0H5C2.239,0,0,2.239,0,5v157.712c0,2.762,2.239,5,5,5h516.92c2.762,0,5-2.238,5-5V5
		C526.92,2.239,524.682,0,521.92,0L521.92,0z"/>
</g>
</svg>
