<svg xmlns="http://www.w3.org/2000/svg" viewBox="0 0 399.99999 149.47686" height="159.442" width="426.667"><path d="M0 0h149.477v149.477H0zm146.338 6.753L6.779 6.454l-.498 139.884h140.057zM38.413 110.95l29.375-75.667 16.442-.002 30.244 75.642-16.794.138-6.537-17.042-30.227.077-6.158 16.89zm47.686-30.046l-10.28-27.623L65.77 80.9zM198.97 97.751c-2.238-.586-3.838-1.564-5.566-3.4-1.243-1.322-2.188-2.996-2.632-4.665-.405-1.518-.362-4.653.084-6.203.584-2.03 1.407-3.399 3.015-5.013 1.158-1.162 1.655-1.542 2.691-2.057 1.826-.909 3.239-1.226 5.456-1.226 2.187 0 3.619.316 5.381 1.187 2.233 1.105 3.961 2.86 5.084 5.166.897 1.843 1.18 3.331 1.08 5.67-.15 3.467-1.38 5.96-4.103 8.318-1.074.93-3.245 2.014-4.614 2.304-1.52.322-4.493.281-5.876-.08zm5.296-2.163c3.357-.853 6.03-3.587 6.72-6.873.904-4.31-.996-8.365-4.816-10.278-1.726-.864-2.675-1.062-4.672-.976-1.234.054-1.775.15-2.511.45-2.858 1.166-4.777 3.151-5.664 5.86-.333 1.017-.396 1.477-.398 2.926-.003 1.49.05 1.877.406 2.909.989 2.87 3.315 5.114 6.146 5.93 1.156.332 3.583.359 4.789.052zm164.742 2.225c-3.696-.793-6.963-3.472-8.36-6.856-.631-1.529-.783-2.415-.77-4.485.012-1.775.055-2.066.494-3.363.625-1.848 1.462-3.24 2.688-4.473 1.707-1.717 3.645-2.757 6.038-3.242 1.684-.341 5.117-.22 6.681.234 1.941.565 4.006 1.724 5.558 3.12l.769.69-.881.79c-.485.433-.938.788-1.007.788-.069 0-.484-.319-.923-.71-2.763-2.459-6.679-3.471-9.938-2.568-3.305.916-5.987 3.54-6.797 6.65-.29 1.115-.293 3.192-.006 4.296.86 3.304 3.6 5.955 7.067 6.842 1.397.357 3.776.386 5.049.061 2.88-.735 5.102-2.867 5.818-5.584l.202-.765h-6.999v-2.242h9.612l-.09 1.307c-.116 1.69-.416 2.816-1.144 4.305-1.301 2.659-3.837 4.584-6.882 5.225-1.373.288-4.793.278-6.179-.02zm-151.07-11.116V75.635h11.21v2.242h-8.82v6.727h8.82v2.242h-8.82v10.728l-.335.09c-.185.05-.724.09-1.196.092h-.86V86.694zM327.19 92.6l-3.938-5.157h-1.129v10.164h-2.392V75.635l4.148.003c4.575.003 5.62.13 6.932.845 1 .543 1.979 1.655 2.39 2.71.417 1.072.462 3.332.086 4.33-.857 2.27-2.813 3.535-5.802 3.75l-1.345.097 3.89 5.082c2.14 2.795 3.893 5.132 3.896 5.194.003.062-.626.112-1.397.112h-1.402l-3.937-5.157zm1.404-7.746c1.586-.5 2.497-1.745 2.497-3.413 0-1.108-.377-1.994-1.129-2.655-.86-.754-1.704-.91-4.952-.91h-2.887v7.366l2.877-.081c1.944-.055 3.11-.155 3.594-.307zm7.62 12.716c.041-.103 2.381-5.08 5.201-11.061 4.833-10.25 5.15-10.875 5.511-10.873.361 0 .675.628 5.466 10.93a3667.27 3667.27 0 0 1 5.134 11.066c.03.078-.502.118-1.245.094l-1.296-.043-1.705-3.588-1.704-3.587-4.679-.04-4.679-.039-1.714 3.662-1.715 3.662h-1.324c-.999 0-1.306-.044-1.25-.184zm13.802-10.463c-1.431-3.105-2.965-6.328-3.054-6.417-.076-.076-3.292 6.521-3.589 7.36-.03.085 1.36.14 3.546.14h3.597zm-110.052 8.824c10.128-21.492 9.542-20.297 9.95-20.295.362 0 .607.48 4.113 8.034 2.05 4.418 4.35 9.362 5.11 10.985l1.382 2.952h-2.597l-1.677-3.547-1.678-3.548-4.678-.04-4.678-.039-1.673 3.552-1.673 3.552-1.348.043-1.348.043.795-1.687zm13.041-8.824c-1.43-3.105-2.965-6.328-3.054-6.417-.075-.076-3.292 6.521-3.588 7.36-.03.085 1.36.14 3.546.14h3.596zm10.822-.486V75.635l4.148.003c4.575.003 5.62.13 6.932.845.999.543 1.978 1.655 2.39 2.71.416 1.072.461 3.332.085 4.33-.856 2.271-2.812 3.535-5.802 3.75l-1.345.097L274 92.302c2.07 2.713 3.832 5.017 3.914 5.12.118.147-.165.187-1.328.187h-1.478l-3.88-5.082-3.879-5.083h-1.13V97.61h-2.391V86.622zm8.863-1.767c1.586-.5 2.497-1.745 2.497-3.413 0-1.108-.377-1.994-1.13-2.655-.859-.754-1.704-.91-4.951-.91h-2.888v7.366l2.878-.081c1.944-.055 3.11-.155 3.594-.307zm9.672 1.755V75.612l3.625.05c3.506.049 3.654.063 4.544.437 2.153.905 3.22 2.502 3.238 4.843.011 1.599-.49 2.756-1.659 3.824-.45.41-.792.761-.761.778.03.017.507.256 1.057.53 2.285 1.136 3.46 3.471 3.09 6.143-.346 2.503-2.166 4.504-4.694 5.162-.678.177-1.746.23-4.66.23h-3.78zm5.85 8.764c2.063-.16 3.007-.504 3.807-1.39 1.597-1.768 1.443-4.304-.352-5.785-1.072-.883-1.93-1.1-4.634-1.17l-2.43-.064v8.551l.935-.004a47.887 47.887 0 0 0 2.674-.139zm.353-11.004c.962-.268 1.592-.662 2.055-1.286 1.057-1.423.898-3.58-.33-4.454-.804-.574-1.7-.753-3.767-.753h-1.92v6.886l1.608-.092c.884-.051 1.943-.186 2.354-.301zm10.837 2.252V75.635h2.392v21.973h-2.392zm10.015 1.12v-9.865h-4.933v-2.242h12.108v2.242h-4.933v19.731h-2.242zm77.877-1.12V75.635H400v2.242h-10.314v6.727H400v2.242h-10.314v8.67H400v2.092h-12.706zM221.266 61.064c-3.785-.978-6.658-3.746-7.839-7.551-.305-.983-.348-1.426-.348-3.588 0-2.183.04-2.585.347-3.502 1.103-3.292 3.428-5.776 6.61-7.061 1.43-.578 2.737-.792 4.852-.793 3.182-.003 5.45.721 7.64 2.44.997.782 2.105 1.986 1.96 2.131-.234.234-1.677 1.255-1.774 1.255-.064 0-.426-.332-.805-.737-.907-.97-2.336-1.886-3.687-2.365-1.444-.512-4.186-.646-5.656-.277-3.206.805-5.692 3.064-6.678 6.07-.359 1.092-.417 1.51-.417 2.989 0 1.418.064 1.914.364 2.832.878 2.68 3.06 4.87 5.84 5.858.847.301 1.256.346 3.213.35 1.951.003 2.362-.04 3.164-.33a10.552 10.552 0 0 0 3.664-2.285c.517-.492.98-.895 1.027-.895.08 0 1.555 1.064 1.76 1.269.153.154-1.822 2.042-2.824 2.7-2.068 1.357-3.948 1.859-6.94 1.851-1.709-.004-2.347-.07-3.473-.361zm-31.837-.115c.04-.103 2.38-5.08 5.2-11.061 4.833-10.25 5.15-10.874 5.51-10.873.362.002.676.628 5.466 10.93 2.796 6.011 5.106 10.99 5.134 11.066.03.079-.502.119-1.244.094l-1.296-.044-1.705-3.587-1.705-3.588-4.678-.039-4.679-.04-1.714 3.663-1.715 3.662-1.324.002c-1 .002-1.306-.044-1.25-.185zm13.8-10.463c-1.43-3.104-2.965-6.327-3.054-6.417-.075-.076-3.292 6.521-3.588 7.36-.03.085 1.36.14 3.546.14h3.596zm33.584 10.463c.04-.103 2.38-5.08 5.2-11.061 4.833-10.25 5.15-10.874 5.51-10.873.362.002.676.628 5.467 10.93a3667.27 3667.27 0 0 1 5.134 11.066c.03.079-.502.119-1.245.094l-1.296-.044-1.705-3.587-1.704-3.588-4.679-.039-4.679-.04-1.714 3.663-1.715 3.662-1.324.002c-1 .002-1.306-.044-1.25-.185zm13.8-10.463c-1.43-3.104-2.965-6.327-3.053-6.417-.076-.076-3.292 6.521-3.589 7.36-.03.085 1.36.14 3.546.14h3.597zm10.672-.411V39.013l4.074.001c7 .002 9.136.607 11.688 3.312 1.231 1.304 1.997 2.7 2.493 4.544.453 1.685.456 5.013.006 6.686-.737 2.736-2.601 5.206-4.733 6.27-2.044 1.022-4.17 1.291-10.276 1.304l-3.251.006zm6.577 8.672c1.892-.085 3.403-.228 3.95-.374 2.642-.705 4.59-2.643 5.41-5.383.332-1.11.375-3.95.078-5.157-.383-1.556-1.18-2.988-2.249-4.036-1.926-1.892-3.545-2.381-8.272-2.5l-3.251-.08v17.677l.635-.005c.35-.003 2.014-.067 3.7-.142zM284.006 50V39.013h12.705v2.242h-10.313v6.727h10.312v2.242h-10.312v8.67h10.312v2.093h-12.705zm15.542 10.8c-.002-.103.684-5.05 1.524-10.993 1.454-10.297 1.54-10.805 1.825-10.763.234.035 1.24 1.96 4.643 8.893 3.22 6.56 4.383 8.797 4.496 8.65.084-.11 2.035-4.105 4.335-8.88 3.636-7.547 4.225-8.682 4.512-8.687.403-.008.182-1.279 1.917 11.055.781 5.55 1.458 10.274 1.504 10.5l.084.412h-2.353L321 53.363c-.568-4.193-1.075-7.623-1.127-7.623-.052 0-1.767 3.434-3.81 7.63-3.707 7.613-3.717 7.631-4.15 7.586-.417-.042-.593-.364-4.194-7.692-2.588-5.267-3.792-7.57-3.864-7.4-.081.193-2.062 14.63-2.062 15.03 0 .051-.505.093-1.121.093-.796 0-1.122-.055-1.125-.187zm34.234-5.026V50.56l-3.513-5.712c-1.932-3.14-3.513-5.741-3.513-5.779 0-.037.613-.048 1.362-.025l1.362.043 2.696 4.368c1.482 2.402 2.736 4.342 2.786 4.311.05-.03 1.267-2.01 2.706-4.399l2.616-4.342 1.4-.006 1.4-.006-.214.336c-.118.185-1.673 2.763-3.455 5.73l-3.242 5.393v10.514h-2.391z" fill="#00000f" fill-opacity=".941"/></svg>